<svg width="32" height="32" viewBox="0 0 32 32" fill="none" xmlns="http://www.w3.org/2000/svg">
  <path d="M 16 2 A 14 14 0 1 1 12.376533368564715 29.52296156804696" stroke="#F86C26" stroke-width="2.5" fill="none" stroke-linecap="round"/>
  <path d="M10.5 18C9.95185 18 9.48148 17.8037 9.08889 17.4111C8.6963 17.0185 8.5 16.5481 8.5 16C8.5 15.4519 8.6963 14.9815 9.08889 14.5889C9.48148 14.1963 9.95185 14 10.5 14C11.0481 14 11.5185 14.1963 11.9111 14.5889C12.3037 14.9815 12.5 15.4519 12.5 16C12.5 16.363 12.4074 16.6963 12.2222 17C12.0444 17.3037 11.8037 17.5481 11.5 17.7333C11.2037 17.9111 10.8704 18 10.5 18Z" fill="#F86C26"/>
  <path d="M16.5 18C15.9519 18 15.4815 17.8037 15.0889 17.4111C14.6963 17.0185 14.5 16.5481 14.5 16C14.5 15.4519 14.6963 14.9815 15.0889 14.5889C15.4815 14.1963 15.9519 14 16.5 14C17.0481 14 17.5185 14.1963 17.9111 14.5889C18.3037 14.9815 18.5 15.4519 18.5 16C18.5 16.363 18.4074 16.6963 18.2222 17C18.0444 17.3037 17.8037 17.5481 17.5 17.7333C17.2037 17.9111 16.8704 18 16.5 18Z" fill="#F86C26"/>
  <path d="M22.5 18C21.9519 18 21.4815 17.8037 21.0889 17.4111C20.6963 17.0185 20.5 16.5481 20.5 16C20.5 15.4519 20.6963 14.9815 21.0889 14.5889C21.4815 14.1963 21.9519 14 22.5 14C23.0481 14 23.5185 14.1963 23.9111 14.5889C24.3037 14.9815 24.5 15.4519 24.5 16C24.5 16.363 24.4074 16.6963 24.2222 17C24.0444 17.3037 23.8037 17.5481 23.5 17.7333C23.2037 17.9111 22.8704 18 22.5 18Z" fill="#F86C26"/>
</svg>