<svg width="32" height="32" viewBox="0 0 32 32" fill="none" xmlns="http://www.w3.org/2000/svg">
<path d="M23 14C23.3788 14 23.7251 14.214 23.8945 14.5527L30.8945 28.5527C31.1415 29.0467 30.9412 29.6475 30.4473 29.8945C29.9533 30.1415 29.3525 29.9412 29.1055 29.4473L23 17.2363L16.8945 29.4473C16.6475 29.9412 16.0467 30.1415 15.5527 29.8945C15.0588 29.6475 14.8585 29.0467 15.1055 28.5527L22.1055 14.5527L22.1768 14.4316C22.3617 14.1637 22.6685 14 23 14Z" fill="#EE6F30"/>
<path d="M28 24C28.5523 24 29 24.4477 29 25C29 25.5523 28.5523 26 28 26H18C17.4477 26 17 25.5523 17 25C17 24.4477 17.4477 24 18 24H28Z" fill="#EE6F30"/>
<path d="M9 5V2C9 1.44772 9.44772 1 10 1C10.5523 1 11 1.44772 11 2V5C11 5.55228 10.5523 6 10 6C9.44772 6 9 5.55228 9 5Z" fill="#EE6F30"/>
<path d="M18 4C18.5523 4 19 4.44772 19 5C19 5.55228 18.5523 6 18 6H2C1.44772 6 1 5.55228 1 5C1 4.44772 1.44772 4 2 4H18Z" fill="#EE6F30"/>
<path d="M13 5C13 4.44772 13.4477 4 14 4C14.5523 4 15 4.44772 15 5C15 8.44781 13.6304 11.7544 11.1924 14.1924C8.75441 16.6304 5.44781 18 2 18C1.44772 18 1 17.5523 1 17C1 16.4477 1.44772 16 2 16C4.91738 16 7.71542 14.8412 9.77832 12.7783C11.8412 10.7154 13 7.91738 13 5Z" fill="#EE6F30"/>
<path d="M6.35074 8.05762C6.8714 7.87363 7.44206 8.14634 7.62613 8.66699C8.38452 10.8119 9.78988 12.6691 11.6476 13.9824C13.5054 15.2957 15.7251 16.0005 18.0002 16C18.5523 16.0001 19 16.4478 19.0002 17C19.0002 17.5522 18.5524 17.9999 18.0002 18C15.3115 18.0006 12.6888 17.1673 10.4933 15.6152C8.29776 14.0631 6.63763 11.868 5.74137 9.33301C5.55738 8.81235 5.8301 8.24169 6.35074 8.05762Z" fill="#EE6F30"/>
</svg>
